<?xml version="1.0" encoding="UTF-8"?>
<svg id="Capa_1" xmlns="http://www.w3.org/2000/svg" version="1.1" viewBox="0 0 1920 1920">
  <defs>
    <style>
      .st0 {
        fill: #3ab084;
      }

      .st1 {
        fill: #424092;
      }

      .st2 {
        fill: #f6f2e6;
      }
    </style>
  </defs>
  <rect class="st1" width="1920" height="1920"/>
  <g>
    <path class="st2" d="M467.13,931.14h-162.66v-406.64h162.66v40.67h40.67v40.66h40.66v40.67h40.67v-121.99h162.66v406.64h-162.66v-121.99h-40.67v-40.66h-40.66v-40.67h-40.67v203.32Z"/>
    <path class="st2" d="M833.1,890.48h-40.67v-325.31h40.67v-40.67h406.64v81.33h-284.65v81.33h121.99v81.33h-121.99v81.33h284.65v81.33h-406.64v-40.67Z"/>
    <path class="st2" d="M1565.04,931.14h-162.66v-325.31h-121.99v-81.33h406.64v81.33h-121.99v325.31Z"/>
  </g>
  <g>
    <path class="st0" d="M304.47,942.39h158.01v316.02h276.52v79h-434.52v-395.02Z"/>
    <path class="st0" d="M936.5,1337.41h-158.01v-355.52h39.5v-39.5h355.52v39.5h39.5v355.52h-158.01v-158.01h-118.51v158.01ZM936.5,1100.4h118.51v-79.01h-118.51v79.01Z"/>
    <path class="st0" d="M1647.54,1337.41h-395.02v-395.02h395.02v39.5h39.5v118.51h-39.5v79h39.5v118.5h-39.5v39.5ZM1410.52,1100.4h118.51v-79.01h-118.51v79.01ZM1410.52,1258.41h118.51v-79h-118.51v79Z"/>
  </g>
</svg>
